# xmcd
#
# Track frame offsets:
#	150
#	10542
#	23244
#	34972
#	46753
#	57038
#	68718
#	77724
#	92012
#	101494
#	111347
#	121548
#
# Disc length: 1750 seconds
#
# Revision: 1
# Processed by: cddbd v1.5PL3 Copyright (c) Steve Scherf et al.
# Submitted via: audiograbber 1.82.02
#
DISCID=8606d40c
DTITLE=Red Simpson - Roll, Truck, Roll
DYEAR=1966
DGENRE=Country
TTITLE0=Truck Drivin' Man
TTITLE1=Roll Truck Roll
TTITLE2=Nitro Express
TTITLE3=Give Me Forty Acres
TTITLE4=Happy Go Lucky Truck Driver
TTITLE5=Highway Man
TTITLE6=Motivatin' Man
TTITLE7=Truck Driver's Blues
TTITLE8=Big Mack
TTITLE9=My Baby's Waitin'
TTITLE10=Six Days On The Road
TTITLE11=Runaway Truck
EXTD=
EXTT0=
EXTT1=
EXTT2=
EXTT3=
EXTT4=
EXTT5=
EXTT6=
EXTT7=
EXTT8=
EXTT9=
EXTT10=
EXTT11=
PLAYORDER=
